<?xml version="1.0"?>
<svg xmlns:rdf="http://www.w3.org/1999/02/22-rdf-syntax-ns#" xmlns="http://www.w3.org/2000/svg" xmlns:sodipodi="http://inkscape.sourceforge.net/DTD/sodipodi-0.dtd" xmlns:cc="http://web.resource.org/cc/" xmlns:xlink="http://www.w3.org/1999/xlink" xmlns:dc="http://purl.org/dc/elements/1.1/" xmlns:svg="http://www.w3.org/2000/svg" id="svg2" viewBox="0 0 64 64" sodipodi:version="0.32" sodipodi:docname="unknown_green.svg" sodipodi:docbase="G:\Projs\Cliparts Stocker\released">
  <defs id="defs4">
    <linearGradient id="linearGradient1363" y2="49.069" gradientUnits="userSpaceOnUse" x2="35.542" gradientTransform="translate(-2.403 .0047597)" y1="19.176" x1="25.404">
      <stop id="stop2844" stop-color="#fff" offset="0"/>
      <stop id="stop2846" stop-color="#c8c8c8" offset="1"/>
    </linearGradient>
    <linearGradient id="linearGradient1364">
      <stop id="stop1366" stop-color="#236b0d" offset="0"/>
      <stop id="stop1368" stop-color="#0a2205" offset="1"/>
    </linearGradient>
    <radialGradient id="radialGradient1343" gradientUnits="userSpaceOnUse" cy="16.362" cx="24.764" gradientTransform="matrix(.025214 1.0261 -.97814 .024047 38.83 -3.5757)" r="27.5">
      <stop id="stop2124" stop-color="#2edc32" offset="0"/>
      <stop id="stop2126" stop-color="#11661d" offset="1"/>
    </radialGradient>
    <linearGradient id="linearGradient1346" y2="63.66" xlink:href="#linearGradient1364" gradientUnits="userSpaceOnUse" x2="63.488" y1="8.6307" x1="10.018"/>
    <radialGradient id="radialGradient2812" gradientUnits="userSpaceOnUse" cy="14.047" cx="18.387" gradientTransform="matrix(.011424 1.0988 -1.844 .018788 52.151 -5.6674)" r="27.5">
      <stop id="stop2816" stop-color="#e6e6e6" offset="0"/>
      <stop id="stop2818" stop-color="#11661d" stop-opacity="0" offset="1"/>
    </radialGradient>
    <linearGradient id="linearGradient2832" y2="63.66" xlink:href="#linearGradient1364" gradientUnits="userSpaceOnUse" x2="63.488" gradientTransform="translate(-.0028410 -.0028410)" y1="8.6307" x1="10.018"/>
  </defs>
  <sodipodi:namedview id="base" bordercolor="#666666" pagecolor="#ffffff" showgrid="false" borderopacity="1.0" showguides="false"/>
  <g id="layer1">
    <g id="g1354">
      <path id="path1373" fill="url(#linearGradient1346)" d="m32 8.6307c-12.887 0-23.369 10.482-23.369 23.369-0.0003 12.887 10.482 23.369 23.369 23.369s23.369-10.482 23.369-23.369-10.482-23.369-23.369-23.369z"/>
      <path id="path1339" fill="url(#radialGradient1343)" d="m54.5 32c0 12.42-10.08 22.5-22.5 22.5s-22.5-10.08-22.5-22.5 10.08-22.5 22.5-22.5 22.5 10.08 22.5 22.5z"/>
      <path id="path1341" fill="url(#radialGradient2812)" d="m32.017 9.1562c-9.442 0-17.512 5.7088-20.955 13.813 4.944 2.833 10.331 4.887 16.119 4.625 5.574-0.314 10.373-4.063 16.056-3.782 4.214-0.096 9.007 1.482 11.252 5.188-1.346-11.153-10.831-19.844-22.472-19.844z"/>
      <path id="path2827" fill="url(#linearGradient2832)" d="m32 8.625c-12.887 0-23.375 10.488-23.375 23.375s10.488 23.375 23.375 23.375 23.375-10.488 23.375-23.375-10.488-23.375-23.375-23.375zm0 0.875c12.42 0 22.5 10.08 22.5 22.5s-10.08 22.5-22.5 22.5-22.5-10.08-22.5-22.5 10.08-22.5 22.5-22.5z"/>
      <path id="text1353" fill="url(#linearGradient1363)" d="m32.557 39.006c0.136-3.17 0.543-3.94 3.351-6.114 3.488-2.672 3.895-2.989 4.212-3.261 1.586-1.359 2.491-3.442 2.491-5.616 0-4.937-3.985-8.062-10.326-8.062-5.978 0-10.19 2.899-10.19 7.066 0 2.445 1.811 4.212 4.302 4.212 2.31 0 3.895-1.495 3.895-3.624 0-1.222-0.498-2.219-1.449-2.943-0.815-0.635-0.86-0.68-0.86-0.997 0-0.634 0.996-1.132 2.4-1.132 2.717 0 4.257 1.812 4.257 4.982 0 1.857-0.679 4.167-1.811 6.205-2.491 4.438-2.854 5.344-2.854 7.382 0 0.453 0.046 1.178 0.136 1.902h2.446m-1.132 2.491c-2.355 0-4.258 1.903-4.258 4.258 0 2.309 1.903 4.257 4.212 4.257 2.401 0 4.303-1.902 4.303-4.257s-1.902-4.258-4.257-4.258"/>
    </g>
  </g>
  <metadata>
    <rdf:RDF>
      <cc:Work>
        <dc:format>image/svg+xml</dc:format>
        <dc:type rdf:resource="http://purl.org/dc/dcmitype/StillImage"/>
        <cc:license rdf:resource="http://creativecommons.org/licenses/publicdomain/"/>
        <dc:publisher>
          <cc:Agent rdf:about="http://openclipart.org/">
            <dc:title>Openclipart</dc:title>
          </cc:Agent>
        </dc:publisher>
        <dc:title>unknown_green</dc:title>
        <dc:date>2006-10-27T02:12:13</dc:date>
        <dc:description>clip art, clipart, help, help, icon, icon, image, media, png, public domain, question mark, question mark, svg, </dc:description>
        <dc:source>http://openclipart.org/detail/974/unknown_green-by-jean_victor_balin</dc:source>
        <dc:creator>
          <cc:Agent>
            <dc:title>jean_victor_balin</dc:title>
          </cc:Agent>
        </dc:creator>
        <dc:subject>
          <rdf:Bag>
            <rdf:li>clip art</rdf:li>
            <rdf:li>clipart</rdf:li>
            <rdf:li>help</rdf:li>
            <rdf:li>icon</rdf:li>
            <rdf:li>image</rdf:li>
            <rdf:li>media</rdf:li>
            <rdf:li>png</rdf:li>
            <rdf:li>public domain</rdf:li>
            <rdf:li>question mark</rdf:li>
            <rdf:li>svg</rdf:li>
          </rdf:Bag>
        </dc:subject>
      </cc:Work>
      <cc:License rdf:about="http://creativecommons.org/licenses/publicdomain/">
        <cc:permits rdf:resource="http://creativecommons.org/ns#Reproduction"/>
        <cc:permits rdf:resource="http://creativecommons.org/ns#Distribution"/>
        <cc:permits rdf:resource="http://creativecommons.org/ns#DerivativeWorks"/>
      </cc:License>
    </rdf:RDF>
  </metadata>
</svg>
